<svg width="24" height="30" viewBox="0 0 24 25" fill="none" xmlns="http://www.w3.org/2000/svg">
<path d="M4.12969 0.152078C4.05469 0.242198 3.09375 1.6109 1.99688 3.19928C0.257813 5.71139 0 6.10567 0 6.26901C0.0046875 6.42109 0.909375 7.87428 5.87344 15.6866C10.2188 22.5245 11.775 24.9352 11.8734 24.9747C11.9531 25.0084 12.0469 25.0084 12.1313 24.9747C12.225 24.9352 13.7719 22.5414 18.1266 15.6866C23.0813 7.88555 23.9953 6.42109 24 6.26901C24 6.10567 23.7469 5.71702 22.0031 3.19928C20.9063 1.6109 19.9453 0.242198 19.8703 0.152078L19.7344 -7.91159e-07H12H4.26563L4.12969 0.152078ZM9.16406 3.21054C8.13281 4.4497 7.27969 5.44103 7.26094 5.4185C7.22344 5.3678 5.10938 1.00822 5.10938 0.98006C5.10938 0.968795 6.44531 0.95753 8.07188 0.95753H11.0391L9.16406 3.21054ZM18.8906 0.98006C18.8906 1.00822 16.7766 5.3678 16.7391 5.4185C16.7203 5.44103 15.8672 4.4497 14.8359 3.21054L12.9609 0.95753H15.9281C17.5547 0.95753 18.8906 0.968795 18.8906 0.98006ZM13.9219 3.46401L15.8203 5.74518H12H8.17969L10.0781 3.46401C11.1234 2.20795 11.9859 1.18283 12 1.18283C12.0141 1.18283 12.8766 2.20795 13.9219 3.46401ZM5.43281 3.57103C6.00469 4.74259 6.46875 5.71139 6.46875 5.72265C6.46875 5.73392 5.31094 5.74518 3.89063 5.74518C2.475 5.74518 1.3125 5.73392 1.3125 5.71702C1.3125 5.63253 4.33125 1.35181 4.36406 1.39124C4.38281 1.41377 4.86563 2.39383 5.43281 3.57103ZM21.1828 3.52033C22.0125 4.71443 22.6875 5.70012 22.6875 5.71702C22.6875 5.73392 21.5297 5.74518 20.1094 5.74518C18.6938 5.74518 17.5313 5.73392 17.5313 5.72265C17.5313 5.71139 17.925 4.89467 18.4031 3.90898C18.8813 2.91765 19.3594 1.94322 19.4625 1.72919C19.5609 1.52078 19.6547 1.35181 19.6641 1.35181C19.6734 1.35181 20.3578 2.32624 21.1828 3.52033ZM8.55469 12.9999C9.45469 16.4301 10.3547 19.8547 10.5516 20.6094C10.7531 21.3642 10.8891 21.95 10.8563 21.9049C10.7531 21.7754 1.26563 6.81536 1.26563 6.7872C1.26563 6.7703 2.53594 6.75904 4.09219 6.75904H6.91406L8.55469 12.9999ZM16.2188 6.79847C16.2234 6.89422 12.0281 22.8118 12 22.8118C11.9719 22.8118 7.77656 6.89422 7.78125 6.79847C7.78125 6.74777 16.2188 6.74777 16.2188 6.79847ZM22.7344 6.7872C22.7344 6.81536 13.2469 21.7754 13.1438 21.9049C13.1109 21.95 13.2469 21.3642 13.4484 20.6094C13.6453 19.8547 14.5453 16.4301 15.4453 12.9999L17.0859 6.75904H19.9125C21.4641 6.75904 22.7344 6.7703 22.7344 6.7872Z" fill="#0C8EFF"/>
</svg>
