<?xml version="1.0" standalone="no"?>
<!DOCTYPE svg PUBLIC "-//W3C//DTD SVG 20010904//EN"
 "http://www.w3.org/TR/2001/REC-SVG-20010904/DTD/svg10.dtd">
<svg version="1.0" xmlns="http://www.w3.org/2000/svg"
 width="24" height="30" viewBox="0 0 512.000000 512.000000"
 preserveAspectRatio="xMidYMid meet">

<g transform="translate(0.000000,512.000000) scale(0.100000,-0.100000)"
fill="#000000" stroke="none">
<path d="M739 4830 c-167 -21 -323 -133 -397 -284 -58 -119 -57 -108 -57 -671
0 -509 0 -521 22 -590 56 -179 205 -317 385 -360 89 -21 488 -21 577 0 190 45
352 210 391 400 7 34 10 229 8 576 -3 515 -3 525 -25 584 -46 119 -139 229
-242 284 -106 56 -147 63 -381 66 -118 2 -245 0 -281 -5z"/>
<path d="M2510 4831 c-219 -30 -405 -199 -449 -409 -7 -35 -11 -227 -11 -555
0 -554 1 -564 63 -681 65 -126 213 -236 355 -265 36 -8 344 -11 975 -11 1012
0 986 -1 1108 61 120 60 220 180 262 314 22 68 22 81 22 580 0 555 -1 564 -57
681 -59 121 -164 212 -302 263 l-71 26 -920 1 c-506 1 -945 -1 -975 -5z"/>
<path d="M688 2194 c-177 -42 -325 -182 -381 -359 -22 -69 -22 -81 -22 -590 0
-565 -1 -551 58 -675 41 -83 141 -185 221 -223 135 -66 66 -62 1111 -62 894 0
954 1 1010 18 189 58 336 214 374 395 7 35 11 227 11 555 0 419 -3 513 -15
562 -48 184 -203 336 -386 380 -91 21 -1892 21 -1981 -1z"/>
<path d="M3846 2195 c-182 -46 -333 -197 -381 -382 -12 -47 -15 -148 -15 -568
0 -466 2 -516 19 -577 47 -173 184 -309 366 -365 51 -15 96 -18 300 -18 264 0
306 6 415 59 123 59 236 203 271 346 11 43 14 166 14 565 0 499 0 512 -22 580
-50 160 -166 282 -328 345 -57 23 -74 24 -320 27 -202 2 -273 -1 -319 -12z"/>
</g>
</svg>
