<svg width="24" height="30" viewBox="0 0 24 24" fill="none" xmlns="http://www.w3.org/2000/svg">
<path d="M2.39473 0.0329677C1.51385 0.143705 0.690995 0.734306 0.300665 1.53056C-0.00526887 2.15807 5.8608e-06 2.10007 5.8608e-06 5.06889C5.8608e-06 7.75296 5.86541e-06 7.81624 0.11605 8.18009C0.411434 9.12399 1.19737 9.8517 2.14682 10.0784C2.61627 10.1892 4.72088 10.1892 5.19033 10.0784C6.19253 9.84115 7.04704 8.97107 7.25275 7.96916C7.28967 7.78987 7.3055 6.76159 7.29495 4.93179C7.27912 2.21608 7.27912 2.16335 7.16308 1.85223C6.92044 1.22471 6.42989 0.644661 5.8866 0.354634C5.32748 0.0593338 5.11121 0.0224213 3.87693 0.00660164C3.25451 -0.0039448 2.58462 0.00660164 2.39473 0.0329677Z" fill="#0C8EFF"/>
<path d="M11.7363 0.0277084C10.5811 0.185905 9.6 1.07708 9.36791 2.18445C9.33099 2.36902 9.30989 3.38147 9.30989 5.11109C9.30989 8.03245 9.31517 8.08518 9.6422 8.70215C9.98506 9.36657 10.7657 9.94663 11.5147 10.0996C11.7046 10.1417 13.3292 10.1576 16.6576 10.1576C21.9956 10.1576 21.8585 10.1628 22.502 9.83589C23.1349 9.5195 23.6624 8.88671 23.884 8.1801C24 7.82152 24 7.75297 24 5.12164C24 2.195 23.9947 2.14754 23.6993 1.53058C23.3881 0.892516 22.8343 0.412653 22.1064 0.143719L21.7319 0.00661553L16.8791 0.00134231C14.2101 -0.0039309 11.8945 0.00661553 11.7363 0.0277084Z" fill="#0C8EFF"/>
<path d="M2.12572 13.9332C1.19209 14.1547 0.411434 14.8929 0.11605 15.8263C5.67426e-06 16.1901 5.67022e-06 16.2534 5.67022e-06 18.9375C5.67022e-06 21.9168 -0.00526905 21.843 0.30594 22.4969C0.522203 22.9346 1.04968 23.4724 1.47165 23.6728C2.18374 24.0208 1.81979 23.9998 7.33187 23.9998C12.0475 23.9998 12.364 23.9945 12.6593 23.9048C13.6563 23.599 14.4317 22.7764 14.6321 21.8219C14.669 21.6374 14.6901 20.6249 14.6901 18.8953C14.6901 16.6858 14.6743 16.1901 14.611 15.9317C14.3578 14.9615 13.5402 14.1599 12.5749 13.9279C12.0949 13.8172 2.59517 13.8172 2.12572 13.9332Z" fill="#0C8EFF"/>
<path d="M18.7833 13.9279C17.8233 14.1704 17.0268 14.9667 16.7736 15.9423C16.7103 16.1901 16.6945 16.7227 16.6945 18.9374C16.6945 21.3948 16.7051 21.6584 16.7947 21.9801C17.0426 22.8923 17.7653 23.6095 18.7253 23.9048C18.9943 23.9839 19.2316 23.9997 20.3077 23.9997C21.7002 23.9997 21.9218 23.9681 22.4967 23.6886C23.1455 23.3775 23.7415 22.6181 23.9262 21.8641C23.9842 21.6373 24 20.9887 24 18.8847C24 16.2534 24 16.1848 23.884 15.8262C23.6202 14.9825 23.0083 14.3392 22.1538 14.007C21.8532 13.8857 21.7635 13.8804 20.4659 13.8646C19.4004 13.8541 19.0259 13.8699 18.7833 13.9279Z" fill="#0C8EFF"/>
</svg>
