<svg width="173" height="34" viewBox="0 0 173 34" fill="none" xmlns="http://www.w3.org/2000/svg">
<rect width="173" height="34" rx="17" fill="#0C8EFF"/>
<path d="M44.5627 20.821L48.1174 10.5586H49.9119L45.2976 23H43.845L39.2393 10.5586H41.0251L44.5627 20.821ZM53.0564 23H51.4756V13.7544H53.0564V23ZM51.3474 11.302C51.3474 11.0457 51.4243 10.8292 51.5781 10.6526C51.7376 10.476 51.9712 10.3877 52.2788 10.3877C52.5864 10.3877 52.82 10.476 52.9795 10.6526C53.139 10.8292 53.2188 11.0457 53.2188 11.302C53.2188 11.5583 53.139 11.772 52.9795 11.9429C52.82 12.1138 52.5864 12.1992 52.2788 12.1992C51.9712 12.1992 51.7376 12.1138 51.5781 11.9429C51.4243 11.772 51.3474 11.5583 51.3474 11.302ZM59.4309 23.1709C58.1777 23.1709 57.158 22.7607 56.3718 21.9404C55.5857 21.1144 55.1926 20.0121 55.1926 18.6335V18.343C55.1926 17.4259 55.3664 16.6084 55.7139 15.8906C56.0671 15.1672 56.557 14.6032 57.1836 14.1987C57.8159 13.7886 58.4995 13.5835 59.2344 13.5835C60.4364 13.5835 61.3706 13.9794 62.0371 14.7712C62.7036 15.5631 63.0369 16.6967 63.0369 18.1721V18.8301H56.7734C56.7962 19.7415 57.0611 20.4792 57.5681 21.0432C58.0808 21.6015 58.7302 21.8806 59.5164 21.8806C60.0746 21.8806 60.5474 21.7667 60.9348 21.5388C61.3222 21.311 61.6611 21.009 61.9517 20.6331L62.9172 21.385C62.1425 22.5756 60.9804 23.1709 59.4309 23.1709ZM59.2344 14.8823C58.5964 14.8823 58.0609 15.1159 57.6279 15.583C57.195 16.0444 56.9272 16.6938 56.8247 17.5312H61.4561V17.4116C61.4105 16.6084 61.194 15.9875 60.8066 15.5488C60.4193 15.1045 59.8952 14.8823 59.2344 14.8823ZM73.0601 20.821L74.8374 13.7544H76.4182L73.7266 23H72.4448L70.1975 15.9932L68.01 23H66.7283L64.0452 13.7544H65.6174L67.4375 20.6758L69.5908 13.7544H70.864L73.0601 20.821ZM82.6218 23V10.5586H86.1338C87.2161 10.5586 88.1732 10.7979 89.0049 11.2764C89.8366 11.7549 90.4775 12.4356 90.9275 13.3186C91.3832 14.2016 91.6139 15.2156 91.6196 16.3606V17.1553C91.6196 18.3288 91.3918 19.357 90.936 20.24C90.486 21.123 89.8394 21.8009 88.9963 22.2737C88.1589 22.7465 87.182 22.9886 86.0654 23H82.6218ZM84.2625 11.9087V21.6584H85.9885C87.2532 21.6584 88.2358 21.2654 88.9365 20.4792C89.6429 19.6931 89.9961 18.5737 89.9961 17.1211V16.3948C89.9961 14.982 89.6628 13.8854 88.9963 13.105C88.3355 12.3188 87.3956 11.9201 86.1765 11.9087H84.2625ZM97.6951 23.1709C96.4418 23.1709 95.4221 22.7607 94.636 21.9404C93.8499 21.1144 93.4568 20.0121 93.4568 18.6335V18.343C93.4568 17.4259 93.6305 16.6084 93.978 15.8906C94.3312 15.1672 94.8211 14.6032 95.4478 14.1987C96.0801 13.7886 96.7637 13.5835 97.4985 13.5835C98.7005 13.5835 99.6348 13.9794 100.301 14.7712C100.968 15.5631 101.301 16.6967 101.301 18.1721V18.8301H95.0376C95.0604 19.7415 95.3253 20.4792 95.8323 21.0432C96.345 21.6015 96.9944 21.8806 97.7805 21.8806C98.3388 21.8806 98.8116 21.7667 99.199 21.5388C99.5863 21.311 99.9253 21.009 100.216 20.6331L101.181 21.385C100.407 22.5756 99.2445 23.1709 97.6951 23.1709ZM97.4985 14.8823C96.8605 14.8823 96.325 15.1159 95.8921 15.583C95.4591 16.0444 95.1914 16.6938 95.0889 17.5312H99.7202V17.4116C99.6746 16.6084 99.4582 15.9875 99.0708 15.5488C98.6834 15.1045 98.1593 14.8823 97.4985 14.8823ZM105.283 11.5156V13.7544H107.009V14.9763H105.283V20.71C105.283 21.0802 105.36 21.3594 105.514 21.5474C105.667 21.7297 105.93 21.8208 106.3 21.8208C106.482 21.8208 106.733 21.7866 107.052 21.7183V23C106.636 23.1139 106.231 23.1709 105.838 23.1709C105.132 23.1709 104.599 22.9573 104.24 22.53C103.882 22.1028 103.702 21.4961 103.702 20.71V14.9763H102.019V13.7544H103.702V11.5156H105.283ZM114.571 23C114.48 22.8177 114.406 22.493 114.349 22.0259C113.614 22.7892 112.737 23.1709 111.717 23.1709C110.806 23.1709 110.057 22.9146 109.47 22.4019C108.889 21.8835 108.598 21.2284 108.598 20.4365C108.598 19.4738 108.963 18.7275 109.692 18.1978C110.427 17.6623 111.458 17.3945 112.785 17.3945H114.323V16.6682C114.323 16.1156 114.158 15.677 113.828 15.3523C113.497 15.0219 113.01 14.8567 112.367 14.8567C111.803 14.8567 111.33 14.9991 110.948 15.2839C110.567 15.5688 110.376 15.9134 110.376 16.3179H108.786C108.786 15.8564 108.949 15.4121 109.273 14.9849C109.604 14.5519 110.048 14.2101 110.606 13.9595C111.17 13.7088 111.788 13.5835 112.461 13.5835C113.526 13.5835 114.361 13.8512 114.964 14.3867C115.568 14.9165 115.882 15.6485 115.904 16.5828V20.8381C115.904 21.6869 116.013 22.362 116.229 22.8633V23H114.571ZM111.948 21.7952C112.444 21.7952 112.914 21.667 113.358 21.4106C113.802 21.1543 114.124 20.821 114.323 20.4109V18.5139H113.084C111.148 18.5139 110.179 19.0807 110.179 20.2144C110.179 20.71 110.344 21.0973 110.675 21.3765C111.005 21.6556 111.43 21.7952 111.948 21.7952ZM120.1 23H118.519V13.7544H120.1V23ZM118.391 11.302C118.391 11.0457 118.468 10.8292 118.622 10.6526C118.781 10.476 119.015 10.3877 119.322 10.3877C119.63 10.3877 119.863 10.476 120.023 10.6526C120.182 10.8292 120.262 11.0457 120.262 11.302C120.262 11.5583 120.182 11.772 120.023 11.9429C119.863 12.1138 119.63 12.1992 119.322 12.1992C119.015 12.1992 118.781 12.1138 118.622 11.9429C118.468 11.772 118.391 11.5583 118.391 11.302ZM124.355 23H122.774V9.875H124.355V23ZM132.276 20.5476C132.276 20.1204 132.114 19.79 131.789 19.5564C131.47 19.3171 130.909 19.1121 130.106 18.9412C129.308 18.7703 128.673 18.5652 128.2 18.3259C127.733 18.0867 127.386 17.8018 127.158 17.4714C126.936 17.141 126.825 16.748 126.825 16.2922C126.825 15.5346 127.144 14.8937 127.782 14.3696C128.425 13.8455 129.246 13.5835 130.243 13.5835C131.291 13.5835 132.14 13.8541 132.789 14.3953C133.444 14.9364 133.772 15.6286 133.772 16.4717H132.182C132.182 16.0387 131.997 15.6656 131.627 15.3523C131.262 15.039 130.801 14.8823 130.243 14.8823C129.667 14.8823 129.217 15.0076 128.893 15.2583C128.568 15.509 128.406 15.8365 128.406 16.241C128.406 16.6226 128.556 16.9103 128.858 17.104C129.16 17.2977 129.704 17.4828 130.49 17.6594C131.282 17.836 131.923 18.0468 132.413 18.2917C132.903 18.5367 133.265 18.8329 133.498 19.1804C133.738 19.5222 133.857 19.9409 133.857 20.4365C133.857 21.2625 133.527 21.9262 132.866 22.4275C132.205 22.9231 131.348 23.1709 130.294 23.1709C129.553 23.1709 128.898 23.0399 128.329 22.7778C127.759 22.5158 127.312 22.1512 126.987 21.6841C126.668 21.2113 126.509 20.7014 126.509 20.1545H128.089C128.118 20.6843 128.329 21.1059 128.722 21.4192C129.12 21.7268 129.645 21.8806 130.294 21.8806C130.892 21.8806 131.371 21.761 131.729 21.5217C132.094 21.2768 132.276 20.9521 132.276 20.5476Z" fill="white"/>
</svg>
