<svg width="24" height="23" viewBox="0 0 24 23" fill="none" xmlns="http://www.w3.org/2000/svg">
<path d="M0.900005 0.9C1.70001 1.5 2.70001 4.6 3.10001 8.5C3.60001 12.1 4.20001 15.5 4.50001 16C4.90001 16.6 8.50001 17 12.5 17C20.9 17 21.3 16.7 22.5 8.7L23.2 4H13.6C4.7 4 4.00001 3.9 4.00001 2C4.00001 0.6 3.30001 -2.5332e-07 1.80001 -2.5332e-07C5.33725e-06 -2.5332e-07 -0.199995 0.2 0.900005 0.9ZM20.6 9.1C20.3 10.8 20 12.9 20 13.6C20 14.7 18.2 15 12.6 15H5.20001L4.80001 10.5L4.50001 6H12.9H21.2L20.6 9.1Z" fill="black"/>
<path d="M5 21C5 22.3 5.7 23 7 23C8.3 23 9 22.3 9 21C9 19.7 8.3 19 7 19C5.7 19 5 19.7 5 21Z" fill="black"/>
<path d="M14.7 19.6C13.6 20.7 15.2 23 17.1 23C18.3 23 19 22.3 19 21C19 19.1 16.2 18.2 14.7 19.6Z" fill="black"/>
</svg>
